<?xml version="1.0" encoding="UTF-8" standalone="no"?>
<!-- Created with Inkscape (http://www.inkscape.org/) -->

<svg
   width="107.38729mm"
   height="107.3873mm"
   viewBox="0 0 107.38729 107.3873"
   version="1.1"
   id="svg1"
   xml:space="preserve"
   inkscape:export-filename="bitmap.svg"
   inkscape:export-xdpi="25.656567"
   inkscape:export-ydpi="25.656567"
   inkscape:version="1.3 (0e150ed6c4, 2023-07-21)"
   sodipodi:docname="drawing-1.svg"
   xmlns:inkscape="http://www.inkscape.org/namespaces/inkscape"
   xmlns:sodipodi="http://sodipodi.sourceforge.net/DTD/sodipodi-0.dtd"
   xmlns="http://www.w3.org/2000/svg"
   xmlns:svg="http://www.w3.org/2000/svg"><sodipodi:namedview
     id="namedview1"
     pagecolor="#505050"
     bordercolor="#eeeeee"
     borderopacity="1"
     inkscape:showpageshadow="0"
     inkscape:pageopacity="0"
     inkscape:pagecheckerboard="0"
     inkscape:deskcolor="#505050"
     inkscape:document-units="mm"
     inkscape:zoom="0.58885382"
     inkscape:cx="206.33304"
     inkscape:cy="406.72234"
     inkscape:window-width="1600"
     inkscape:window-height="837"
     inkscape:window-x="-8"
     inkscape:window-y="-8"
     inkscape:window-maximized="1"
     inkscape:current-layer="layer1"
     showgrid="false" /><defs
     id="defs1" /><g
     inkscape:label="Layer 1"
     inkscape:groupmode="layer"
     id="layer1"
     transform="translate(-37.756042,-131.15651)"><g
       id="g4"
       inkscape:export-filename="g4.svg"
       inkscape:export-xdpi="96"
       inkscape:export-ydpi="96"><circle
         style="opacity:1;fill:#ffffff;stroke:#000000;stroke-width:0.758946;stroke-opacity:1"
         id="circle3"
         cx="108.14111"
         cy="256.01871"
         r="40.616436"
         transform="translate(-15.2504,-71.168532)" /><path
         style="opacity:1;fill:#000000;fill-opacity:1;stroke:#000000;stroke-width:0.363697;stroke-dasharray:none;stroke-opacity:1"
         d="m 88.771127,202.35934 -1.98252,5.28672 1.888114,0.18881 c 0,0 3.681827,-16.33219 14.632899,-27.28327 0,0 -11.441904,17.43059 -11.575414,24.17284 0,0 16.822254,-1.60212 18.691394,-21.56186 0,0 0.90851,-8.93616 3.64629,-11.01308 0,0 -41.681589,7.01719 -25.300763,30.20984 z"
         id="path3" /><path
         style="opacity:1;fill:#000000;fill-opacity:1;stroke:#000000;stroke-width:0.363698;stroke-dasharray:none;stroke-opacity:1"
         d="m 91.353273,179.82295 c 0,0 5.052414,-3.69008 7.248182,-4.55288 0,0 -6.910578,-12.2153 -26.117025,-11.03669 0,0 3.03034,0.7291 4.593335,10.796 1.562993,10.06692 6.949991,13.68946 6.949991,13.68946 0,0 3.520765,-6.93203 6.262272,-7.96058 0,0 -4.411115,-7.37289 -7.771319,-10.26364 0,0 5.445085,3.76003 8.834564,9.32833 z"
         id="path4" /><rect
         style="opacity:0.386842;fill:none;stroke-width:0.806"
         id="rect1"
         width="107.38729"
         height="107.38729"
         x="37.756042"
         y="131.15652" /></g></g></svg>
