<?xml version="1.0" encoding="UTF-8" standalone="no"?>
<!-- Created with Inkscape (http://www.inkscape.org/) -->

<svg
   width="200mm"
   height="200mm"
   viewBox="0 0 200 200"
   version="1.1"
   id="svg1"
   xmlns="http://www.w3.org/2000/svg"
   xmlns:svg="http://www.w3.org/2000/svg">
  <defs
     id="defs1" />
  <g
     id="g7"
     style="display:inline"
     transform="matrix(2.0465923,0,0,2.0465923,-137.23457,-33.43114)">
    <path
       id="path13"
       style="display:inline;opacity:1;fill:none;fill-opacity:1;stroke:#ff0000;stroke-width:0.805722;stroke-dasharray:none;stroke-opacity:1"
       d="m 91.452715,-89.661064 c 4.694628,4.957635 10.968865,8.246162 17.734415,9.562521 -2.36461,3.3424 -5.28113,6.310497 -8.64364,8.70066 -1.252765,-6.841038 -4.38519,-13.293976 -9.090775,-18.263181 z m 0,48.92839 c 5.174691,-5.1747 8.159968,-11.545989 9.242145,-18.159396 3.41701,2.455888 6.36371,5.51448 8.73635,8.950891 -6.54845,1.106822 -12.851131,4.081132 -17.978495,9.208505 z m 30.242275,-9.167894 c 2.37958,-3.529398 5.4226,-6.65712 9.01037,-9.149845 1.23674,6.988274 4.57561,13.488171 9.67574,18.317739 -5.07165,-4.802597 -11.68809,-7.968908 -18.68611,-9.167894 z m 0.3331,-30.099113 c 6.57926,-1.184855 13.00215,-4.310516 18.35301,-9.661383 -5.34475,5.344759 -8.46892,11.759475 -9.65687,18.330866 -3.42852,-2.378723 -6.36419,-5.334741 -8.69614,-8.669483 z"
       transform="matrix(0,1.2597403,1.2597403,0,198.04782,-80.828407)" />
    <path
       id="path2"
       style="font-weight:bold;font-size:19.7556px;font-family:Figtree;-inkscape-font-specification:'Figtree Bold';display:inline;opacity:1;fill:#ffffff;fill-opacity:1;stroke-width:0.55611"
       d="m 123.20703,57.150391 c -7.19582,0.05766 -14.39192,0.03392 -21.58789,0.03711 v 2.015625 h 12.9668 c -0.0332,4.165374 -0.0702,7.879459 -0.10352,12.044833 h -10.59961 l 0.0312,2.17685 h 10.50879 c 0.0254,3.09962 0.11317,6.553706 0.13967,9.653317 h 2.52539 v -9.615234 c 3.27536,-0.168492 6.59999,0.293016 9.83824,-0.344212 3.39603,-0.927865 5.88883,-4.338916 5.74231,-7.849527 0.0231,-2.629383 -1.27589,-5.314286 -3.55321,-6.69884 -1.66412,-1.079107 -3.8738,-1.54336 -5.9082,-1.419921 z m 0.83008,2.050781 c 3.26957,-0.06347 6.23865,2.946835 6.03559,6.231631 0.0449,2.951759 -2.37785,5.767533 -5.41215,5.829081 -2.39134,-0.01393 -7.08432,-0.01393 -7.08432,-0.01393 l -0.50599,-0.0069 0.0177,-0.981684 V 59.20312 c 2.31641,-3.34e-4 4.63281,-0.0014 6.94922,-0.002 z" />
    <path
       id="path7"
       style="display:inline;opacity:1;fill:none;fill-opacity:1;stroke:#0523ff;stroke-width:0.806;stroke-opacity:1"
       transform="matrix(0.89077089,0.89077089,0.89077089,-0.89077089,70.736853,-96.133988)"
       d="m 91.452682,-89.660919 c 12.030398,12.704373 34.418818,14.509549 48.928368,0 -14.50955,14.509549 -12.7044,36.897946 0,48.928364 -12.7044,-12.030418 -35.09281,-13.835583 -48.928368,0 13.835558,-13.835583 12.030398,-36.223991 0,-48.928364 z" />
  </g>
</svg>
